
<svg width="39" height="37" viewBox="0 0 39 37" fill="none" xmlns="http://www.w3.org/2000/svg">
    <path d="M0 36.4414L2.45449 36.4312L4.90873 36.4211L6.1646 35.0366C6.85543 34.2751 7.50196 33.5644 7.60156 33.4572C7.85117 33.188 9.98508 30.8329 10.3049 30.4737C10.6784 30.0538 17.1782 22.8893 17.2822 22.7826C17.3302 22.7335 17.7521 22.2679 18.22 21.7476C18.6879 21.2275 19.0926 20.802 19.1193 20.802C19.146 20.802 19.5507 21.2275 20.0186 21.7476C20.4865 22.2679 20.9091 22.734 20.9576 22.7838C21.0626 22.8915 27.558 30.0512 27.9339 30.4737C28.2513 30.8304 30.3857 33.186 30.6373 33.4572C30.7366 33.5644 31.3832 34.2751 32.074 35.0366L33.3299 36.4211L35.7841 36.4312L38.2386 36.4414V18.3451V0.248535L35.7858 0.258715L33.3333 0.268895L32.9929 0.639383C32.8059 0.843136 32.4305 1.25558 32.1591 1.55589C31.8875 1.85619 31.3902 2.40452 31.054 2.77455C30.7175 3.14457 30.164 3.75444 29.8236 4.12987C28.3612 5.74277 27.943 6.20364 27.2218 6.99629C26.8021 7.45747 26.3582 7.94873 26.2353 8.08816C26.1125 8.2276 25.7797 8.59623 25.4958 8.90718C24.9237 9.53417 23.8951 10.6683 23.4622 11.1497C23.3078 11.3212 23.0359 11.6195 22.8578 11.8126C22.5206 12.1779 21.1844 13.6532 20.7914 14.094C20.6671 14.2334 20.3566 14.5757 20.1008 14.8546C19.8454 15.1334 19.5326 15.48 19.4058 15.6249C19.2654 15.7851 19.1931 15.8661 19.1216 15.8678C19.0485 15.8695 18.9762 15.7885 18.8327 15.6249C18.706 15.48 18.3932 15.1334 18.1377 14.8546C17.8823 14.5757 17.5715 14.2334 17.4472 14.094C17.0541 13.6532 15.718 12.1779 15.3808 11.8126C15.2026 11.6195 14.9308 11.3212 14.7763 11.1497C14.3434 10.6683 13.3152 9.53417 12.7428 8.90718C12.4589 8.59623 12.1261 8.2276 12.0032 8.08816C11.8804 7.94873 11.4365 7.45747 11.0168 6.99629C10.5971 6.53511 9.98337 5.85937 9.65276 5.49475C9.32215 5.13012 8.77325 4.52472 8.43286 4.1493C8.0927 3.77388 7.535 3.15969 7.19362 2.78442C6.85249 2.40899 6.35107 1.85619 6.07944 1.55589C5.80805 1.25558 5.4329 0.843136 5.2457 0.639383L4.9053 0.268895L2.45277 0.258715L0 0.248535V18.3451V36.4414ZM8.60636 9.15459C8.76273 9.3295 10.6813 11.4466 12.8698 13.8593C15.0583 16.2717 16.8606 18.2741 16.875 18.309C16.9019 18.3734 16.7465 18.5607 15.8421 19.554C15.5589 19.865 15.0529 20.4222 14.7174 20.7923C14.3819 21.1621 13.832 21.7677 13.4955 22.1377C12.6424 23.0755 11.4088 24.4382 11.1387 24.7408C11.0143 24.8803 10.6808 25.2487 10.3974 25.5599C9.87741 26.1307 9.18389 26.895 8.03569 28.163C7.27952 28.9979 7.06099 29.2385 6.5745 29.7717C5.8149 30.6045 4.67233 31.8672 4.41122 32.1629C4.0833 32.5343 3.84495 32.7746 3.80457 32.7746C3.78793 32.7746 3.77447 26.2812 3.77447 18.3451C3.77447 10.4087 3.79528 3.91578 3.82073 3.91624C3.84642 3.91686 4.86957 5.024 6.09461 6.37685C7.3199 7.72955 8.44999 8.97968 8.60636 9.15459ZM34.434 32.7746C34.3934 32.7746 34.154 32.5331 33.8278 32.1629C33.5922 31.8956 33.1292 31.3842 31.6629 29.7717C31.0215 29.0664 30.8472 28.8743 30.2029 28.163C29.8583 27.7823 29.3009 27.168 28.9646 26.7981C27.9611 25.6942 27.341 25.0097 27.1004 24.7408C26.82 24.4273 25.5594 23.0354 24.7521 22.1474C24.4205 21.7828 23.8707 21.1772 23.5303 20.802C23.1899 20.4265 22.6796 19.865 22.3965 19.554C21.492 18.5607 21.3366 18.3734 21.3636 18.309C21.378 18.2741 23.1803 16.2717 25.3688 13.8593C27.5573 11.4466 29.4758 9.3295 29.6322 9.15459C31.2297 7.36693 34.3814 3.91701 34.4179 3.91624C34.4433 3.91578 34.4641 10.4087 34.4641 18.3451C34.4641 26.2812 34.4506 32.7746 34.434 32.7746Z" fill="#FF4D4D"/>
    <path d="M38.1987 0.248535V36.4211H33.2934L16.8379 18.3348L19.3659 15.6045L33.2934 0.248535H38.1987ZM34.4242 3.89588L21.3209 18.3246L34.4242 32.7543V3.89588Z" fill="#FFC5BB"/>
</svg>
