<svg width="24" height="24" viewBox="0 0 24 24" fill="none" xmlns="http://www.w3.org/2000/svg">
    <path fill-rule="evenodd" clip-rule="evenodd" d="M15.0732 1.99951H8.93763C3.33336 1.99951 2 3.33287 2 8.92673V15.0623C2 20.6665 3.32294 21.9999 8.92721 21.9999H15.0627C20.667 21.9999 22.0004 20.6769 22.0004 15.0727V8.93714C22.0004 3.33287 20.6774 1.99951 15.0732 1.99951ZM17.9378 8.35406C18.3753 8.35406 18.4691 8.57282 18.3753 8.88532C18.2189 9.6399 16.8106 11.6789 16.4843 12.1513C16.4412 12.2137 16.417 12.2488 16.417 12.25C16.2607 12.4896 16.1982 12.6146 16.417 12.8958C16.4915 13.0076 16.6611 13.1737 16.8551 13.3636C17.0408 13.5455 17.2488 13.7492 17.417 13.9479C18.042 14.6563 18.5107 15.25 18.6462 15.6563C18.7712 16.0625 18.5628 16.2709 18.1462 16.2709H16.6878C16.3009 16.2709 16.1033 16.0509 15.679 15.5786C15.4979 15.377 15.2755 15.1294 14.9794 14.8334C14.1148 14 13.7502 13.8958 13.5315 13.8958C13.2294 13.8958 13.1461 13.9792 13.1461 14.3958V15.7084C13.1461 16.0625 13.0315 16.2709 12.1044 16.2709C10.5627 16.2709 8.86473 15.3334 7.65637 13.6042C5.84384 11.0729 5.35425 9.15616 5.35425 8.77074C5.35425 8.55199 5.43758 8.35406 5.85426 8.35406H7.31262C7.68762 8.35406 7.82304 8.52074 7.96888 8.90616C8.67723 10.9895 9.88558 12.8021 10.3752 12.8021C10.5627 12.8021 10.646 12.7187 10.646 12.25V10.1041C10.6076 9.5022 10.396 9.2388 10.2386 9.04291C10.14 8.92013 10.0627 8.82387 10.0627 8.6874C10.0627 8.53115 10.2085 8.35406 10.4377 8.35406H12.7294C13.0419 8.35406 13.1461 8.51032 13.1461 8.88532V11.7812C13.1461 12.0937 13.2815 12.1979 13.3752 12.1979C13.5627 12.1979 13.7086 12.0937 14.0523 11.75C15.1044 10.5833 15.844 8.77074 15.844 8.77074C15.9378 8.55199 16.1045 8.35406 16.4795 8.35406H17.9378Z" fill="#0F1113"/>
</svg>
