<svg width="24" height="24" viewBox="0 0 24 24" fill="none" xmlns="http://www.w3.org/2000/svg">
    <path fill-rule="evenodd" clip-rule="evenodd" d="M15.0727 1.99951H8.93714C3.33287 1.99951 1.99951 3.33287 1.99951 8.92673V15.0623C1.99951 20.6665 3.32245 21.9999 8.92673 21.9999H15.0623C20.6665 21.9999 21.9999 20.6769 21.9999 15.0727V8.93714C21.9999 3.33287 20.6769 1.99951 15.0727 1.99951ZM17.9373 8.35406C18.3748 8.35406 18.4686 8.57282 18.3748 8.88532C18.2184 9.6399 16.8101 11.6789 16.4838 12.1513C16.4407 12.2137 16.4165 12.2488 16.4165 12.25C16.2602 12.4896 16.1977 12.6146 16.4165 12.8958C16.491 13.0076 16.6606 13.1737 16.8546 13.3636C17.0403 13.5455 17.2483 13.7492 17.4165 13.9479C18.0415 14.6563 18.5103 15.25 18.6457 15.6563C18.7707 16.0625 18.5623 16.2709 18.1457 16.2709H16.6873C16.3004 16.2709 16.1028 16.0509 15.6786 15.5786C15.4974 15.377 15.275 15.1294 14.9789 14.8334C14.1143 14 13.7498 13.8958 13.531 13.8958C13.2289 13.8958 13.1456 13.9792 13.1456 14.3958V15.7084C13.1456 16.0625 13.031 16.2709 12.1039 16.2709C10.5622 16.2709 8.86424 15.3334 7.65589 13.6042C5.84335 11.0729 5.35376 9.15616 5.35376 8.77074C5.35376 8.55199 5.43709 8.35406 5.85377 8.35406H7.31213C7.68714 8.35406 7.82256 8.52074 7.96839 8.90616C8.67674 10.9895 9.8851 12.8021 10.3747 12.8021C10.5622 12.8021 10.6455 12.7187 10.6455 12.25V10.1041C10.6071 9.5022 10.3955 9.2388 10.2381 9.04291C10.1395 8.92013 10.0622 8.82387 10.0622 8.6874C10.0622 8.53115 10.208 8.35406 10.4372 8.35406H12.7289C13.0414 8.35406 13.1456 8.51032 13.1456 8.88532V11.7812C13.1456 12.0937 13.281 12.1979 13.3747 12.1979C13.5622 12.1979 13.7081 12.0937 14.0518 11.75C15.1039 10.5833 15.8435 8.77074 15.8435 8.77074C15.9373 8.55199 16.104 8.35406 16.479 8.35406H17.9373Z" fill="#0F1113"/>
</svg>
